# AST/ASF file generated using VICON BodyLanguage
# -----------------------------------------------
:version 1.10
:name VICON
:units
  mass 1.0
  length 0.45
  angle deg
:documentation
   .ast/.asf automatically generated from VICON data using
   VICON BodyBuilder and BodyLanguage model FoxedUp or BRILLIANT.MOD
:root
   order TX TY TZ RX RY RZ
   axis XYZ
   position 0 0 0  
   orientation 0 0 0 
:bonedata
  begin
     id 1 
     name lhipjoint
     direction 0.661853 -0.702389 0.261917 
     length 2.64193 
     axis 0 0 0  XYZ
  end
  begin
     id 2 
     name lfemur
     direction 0.34202 -0.939693 0  
     length 7.01722  
     axis 0 0 20  XYZ
    dof rx ry rz
    limits (-160.0 20.0)
           (-70.0 70.0)
           (-60.0 70.0)
  end
  begin
     id 3 
     name ltibia
     direction 0.34202 -0.939693 0   
     length 8.25008   
     axis 0 0 20   XYZ
    dof rx
    limits (-10.0 170.0)
  end
  begin
     id 4 
     name lfoot
     direction 0.0709916 -0.195048 0.978221   
     length 2.31941   
     axis -90 7.62852e-016 20   XYZ
    dof rx rz
    limits (-45.0 90.0)
           (-70.0 20.0)
  end
  begin
     id 5 
     name ltoes
     direction 1.53586e-011 -4.22017e-011 1   
     length 1.16486   
     axis -90 7.62852e-016 20   XYZ
    dof rx
    limits (-90.0 20.0)
  end
  begin
     id 6 
     name rhipjoint
     direction -0.638185 -0.721362 0.268992   
     length 2.57244  
     axis 0 0 0  XYZ 
  end
  begin
     id 7 
     name rfemur
     direction -0.34202 -0.939693 0   
     length 7.07017   
     axis 0 0 -20   XYZ
    dof rx ry rz
    limits (-160.0 20.0)
           (-70.0 70.0)
           (-70.0 60.0)
  end
  begin
     id 8 
     name rtibia
     direction -0.34202 -0.939693 0   
     length 8.20386   
     axis 0 0 -20   XYZ
    dof rx
    limits (-10.0 170.0)
 end
 begin
     id 9 
     name rfoot
     direction -0.0822429 -0.225961 0.970658   
     length 2.32215  
     axis -90 -7.62852e-016 -20   XYZ
    dof rx rz
    limits (-45.0 90.0)
           (-20.0 70.0)
  end
  begin
     id 10 
     name rtoes
     direction -1.53597e-011 -4.21689e-011 1   
     length 1.16333   
     axis -90 -7.62852e-016 -20   XYZ
    dof rx
    limits (-90.0 20.0)
  end
  begin
     id 11 
     name lowerback
     direction -0.0131557 0.998589 -0.0514484   
     length 2.14993   
     axis 0 0 0   XYZ
    dof rx ry rz
    limits (-20.0 45.0)
           (-30.0 30.0)
           (-30.0 30.0)
  end
  begin
     id 12 
     name upperback
     direction -0.000776481 0.999993 0.00352685   
     length 2.15301   
     axis 0 0 0   XYZ
    dof rx ry rz
    limits (-20.0 45.0)
           (-30.0 30.0)
           (-30.0 30.0)
  end
  begin
     id 13 
     name thorax
     direction 0.00438186 0.999609 0.0276143   
     length 2.15424   
     axis 0 0 0   XYZ
    dof rx ry rz
    limits (-20.0 45.0)
           (-30.0 30.0)
           (-30.0 30.0)
  end
  begin
     id 14 
     name lowerneck
     direction -0.0488006 0.998094 0.0377807   
     length 1.90481   
     axis 0 0 0   XYZ
    dof rx ry rz
    limits (-20.0 45.0)
           (-30.0 30.0)
           (-30.0 30.0)
  end
  begin
     id 15 
     name upperneck
     direction 0.0443769 0.990702 -0.12861   
     length 1.91305   
     axis 0 0 0   XYZ
    dof rx ry rz
    limits (-20.0 45.0)
           (-30.0 30.0)
           (-30.0 30.0)
  end
  begin
     id 16
     name head
     direction 0.0165599 0.998647 -0.0492982  
     length 1.92369  
     axis 0 0 0   XYZ
    dof rx ry rz
    limits (-20.0 45.0)
           (-30.0 30.0)
           (-30.0 30.0)
  end
  begin
     id 17 
     name lclavicle
     direction 0.911936 0.410197 -0.0105506  
     length 3.52622  
     axis 0 0 0   XYZ
    dof ry rz
    limits (-20.0 10.0)
           (0.0 20.0)
  end
  begin
     id 18 
     name lhumerus
     direction 1 -4.48974e-011 -2.48591e-028   
     length 5.47651   
     axis 180 -30 -90   XYZ
    dof rx ry rz
    limits (-60.0 90.0)
           (-90.0 90.0)
           (-90.0 90.0)
  end
  begin
     id 19
     name lradius
     direction 1 -4.48938e-011 -4.40099e-027   
     length 3.09058   
     axis 180 -30 -90   XYZ
    dof rx
    limits (-10.0 170.0)
  end
  begin
     id 20
     name lwrist
     direction 1 -4.49042e-011 -2.99852e-027   
     length 1.54529   
     axis 1.95339e-015 90 90   XYZ
    dof ry
    limits (-180.0 0.0)
 end
  begin
     id 21 
     name lhand
     direction 1 -4.48815e-011 -5.98193e-027   
     length 0.771611   
     axis 3.82337e-015 90 90   XYZ
    dof rx rz
    limits (-90.0 90.0)
           (-45.0 45.0)
  end
  begin
     id 22 
     name lfingers
     direction 1 -4.49034e-011 -1.1993e-026   
     length 0.622093   
     axis 7.64668e-015 90 90   XYZ
    dof rx
    limits (0.0 90.0)
  end
  begin
     id 23
     name lthumb
     direction 0.707107 -6.34867e-011 0.707107   
     length 0.893204   
     axis -90 45 -1.62303e-014   XYZ
    dof rx rz
    limits (-45.0 45.0)
           (-45.0 45.0)
  end
  begin
     id 24 
     name rclavicle
     direction -0.93442 0.355634 -0.0195692   
     length 3.62463  
     axis 0 0 0   XYZ 
    dof ry rz
    limits (-10.0 20.0)
           (-20.0 0.0)
  end
  begin
     id 25 
     name rhumerus
     direction -1 -4.48957e-011 -1.19147e-027  
     length 5.14182   
     axis 180 30 90   XYZ
    dof rx ry rz
    limits (-90.0 60.0)
           (-90.0 90.0)
           (-90.0 90.0)
  end
  begin
     id 26 
     name rradius
     direction -1 -4.48952e-011 -3.81062e-027   
     length 3.35565   
     axis 180 30 90   XYZ
    dof rx
    limits (-10.0 170.0)
  end
  begin
     id 27 
     name rwrist
     direction -1 -4.48973e-011 -2.99621e-027   
     length 1.67782   
     axis 1.95339e-015 -90 -90   XYZ
    dof ry
    limits (-180.0 0.0)
  end
  begin
     id 28
     name rhand
     direction -1 -4.48895e-011 -5.98727e-027   
     length 0.801042   
     axis 3.82337e-015 -90 -90   XYZ
    dof rx rz
    limits (-90.0 90.0)
           (-45.0 45.0)
  end
  begin
     id 29
     name rfingers
     direction -1 -4.49065e-011 -1.19972e-026   
     length 0.645821   
     axis 7.64668e-015 -90 -90   XYZ
    dof rx
    limits (0.0 90.0)
  end
  begin
     id 30
     name rthumb
     direction -0.707107 -6.34957e-011 0.707107   
     length 0.927273   
     axis -90 -45 1.62303e-014   XYZ
    dof rx rz
    limits (-45.0 45.0)
           (-45.0 45.0)
  end
:hierarchy
  begin
    root lhipjoint rhipjoint lowerback
    lhipjoint lfemur
    lfemur ltibia
    ltibia lfoot
    lfoot ltoes
    rhipjoint rfemur
    rfemur rtibia
    rtibia rfoot
    rfoot rtoes
    lowerback upperback
    upperback thorax
    thorax lowerneck lclavicle rclavicle
    lowerneck upperneck
    upperneck head
    lclavicle lhumerus
    lhumerus lradius
    lradius lwrist
    lwrist lhand lthumb
    lhand lfingers
    rclavicle rhumerus
    rhumerus rradius
    rradius rwrist
    rwrist rhand rthumb
    rhand rfingers
  end

#!OML:ASF E:\Style4\Style4.ASF
:FULLY-SPECIFIED
:DEGREES
1
root -0.138857 18.1265 0.0655596 4.07706 -3.60819 3.1755
lowerback 0.636291 2.36946 -1.21011
upperback -1.23975 3.13399 -0.643836
thorax -1.65509 1.577 -0.0481954
lowerneck 2.56475 -3.20123 -6.42574
upperneck 5.62039 -4.48861 3.31378
head 1.57283 -2.32458 2.125
rclavicle 5.70015e-014 1.98785e-015
rhumerus -82.9101 50.5262 -114.429
rradius 89.142
rwrist -25.9116
rhand 2.9687 26.4059
rfingers 7.12502
rthumb 28.4306 -1.45431
lclavicle 5.70015e-014 1.98785e-015
lhumerus -86.476 -54.9968 114.372
lradius 97.47
lwrist 2.3853
lhand -4.7053 6.2821
lfingers 7.12502
lthumb 21.0765 35.1567
rfemur -5.10717 8.52747 15.6453
rtibia 18.4727
rfoot -15.9435 -15.1389
rtoes -12.8616
lfemur 3.27217 -4.45297 -22.5066
ltibia 5.15048
lfoot -13.2383 15.0466
ltoes -15.8141
2
root -0.138377 18.1268 0.0655022 4.08478 -3.64181 3.14674
lowerback 0.616637 2.36747 -1.19052
upperback -1.23613 3.13223 -0.626499
thorax -1.64024 1.57595 -0.0403293
lowerneck 2.59636 -3.18315 -6.44503
upperneck 5.5944 -4.46675 3.3223
head 1.55858 -2.31394 2.13216
rclavicle -3.21534e-014 5.56597e-015
rhumerus -82.908 50.5565 -114.435
rradius 89.1267
rwrist -25.8875
rhand 2.92164 26.4337
rfingers 7.12502
rthumb 28.3857 -1.43401
lclavicle -3.21534e-014 5.56597e-015
lhumerus -86.4556 -54.9556 114.355
lradius 97.4561
lwrist 2.36338
lhand -4.90849 6.25329
lfingers 7.12502
lthumb 20.8813 35.1495
rfemur -5.12603 8.53142 15.6736
rtibia 18.4769
rfoot -15.8751 -15.1626
rtoes -13.0878
lfemur 3.3023 -4.41773 -22.4814
ltibia 5.08132
lfoot -13.2506 15.1037
ltoes -16.1379
3
root -0.137464 18.1275 0.067216 4.1039 -3.70758 3.17195
lowerback 0.551293 2.37387 -1.22158
upperback -1.21935 3.14172 -0.620252
thorax -1.5885 1.58092 -0.0133603
lowerneck 2.61155 -3.16447 -6.51333
upperneck 5.57638 -4.44518 3.36386
head 1.55227 -2.30398 2.15886
rclavicle 4.82177e-014 -1.55052e-014
rhumerus -82.9103 50.5914 -114.408
rradius 89.1621
rwrist -25.8814
rhand 2.95693 26.4081
rfingers 7.12502
rthumb 28.4194 -1.45406
lclavicle 4.82177e-014 -1.55052e-014
lhumerus -86.3964 -54.8915 114.274
lradius 97.4922
lwrist 2.32328
lhand -5.20369 6.09801
lfingers 7.12502
lthumb 20.5977 35.0252
rfemur -5.19199 8.55623 15.6275
rtibia 18.5091
rfoot -15.8689 -15.1532
rtoes -13.2197
lfemur 3.37574 -4.35492 -22.5168
ltibia 4.92737
lfoot -13.1891 15.1279
ltoes -16.5628
4
root -0.136228 18.1284 0.0670262 4.12144 -3.76872 3.19671
lowerback 0.540571 2.38648 -1.24257
upperback -1.22323 3.15835 -0.623587
thorax -1.58759 1.58947 -0.00504981
lowerneck 2.6631 -3.16194 -6.4965
upperneck 5.50509 -4.44302 3.34062
head 1.51892 -2.3025 2.1492
rclavicle 2.17172e-014 6.36111e-015
rhumerus -82.9432 50.5916 -114.397
rradius 89.2148
rwrist -25.8942
rhand 3.08647 26.3839
rfingers 7.12502
rthumb 28.5432 -1.45753
lclavicle 2.17172e-014 6.36111e-015
lhumerus -86.3717 -54.8494 114.237
lradius 97.5201
lwrist 2.30619
lhand -5.3345 6.02875
lfingers 7.12502
lthumb 20.472 34.9695
rfemur -5.22585 8.56847 15.5824
rtibia 18.5017
rfoot -15.8598 -15.088
rtoes -13.2962
lfemur 3.32607 -4.29626 -22.5536
ltibia 4.99329
lfoot -13.2024 15.1115
ltoes -16.563
5
root -0.135776 18.1288 0.0648709 4.15051 -3.809 3.17133
lowerback 0.540911 2.41651 -1.2146
upperback -1.23218 3.19867 -0.625229
thorax -1.59573 1.60933 -0.0233996
lowerneck 2.65144 -3.19163 -6.42632
upperneck 5.50964 -4.47811 3.27147
head 1.52009 -2.31937 2.11301
rclavicle 1.42007e-014 -2.78299e-015
rhumerus -82.9066 50.518 -114.328
rradius 89.2441
rwrist -25.9003
rhand 3.14911 26.3596
rfingers 7.12502
rthumb 28.603 -1.47169
lclavicle 1.42007e-014 -2.78299e-015
lhumerus -86.3914 -54.9007 114.264
lradius 97.5365
lwrist 2.3214
lhand -5.29947 6.06422
lfingers 7.12502
lthumb 20.5057 35.0013
rfemur -5.26873 8.60007 15.6011
rtibia 18.4942
rfoot -15.8009 -15.1145
rtoes -13.2379
lfemur 3.25248 -4.25545 -22.5273
ltibia 5.07002
lfoot -13.2115 15.0662
ltoes -16.3649
6
root -0.136101 18.1284 0.0612595 4.16063 -3.81891 3.09114
lowerback 0.574589 2.41514 -1.14302
upperback -1.23377 3.19759 -0.601552
thorax -1.61362 1.60811 -0.0406325
lowerneck 2.61832 -3.2054 -6.39768
upperneck 5.52961 -4.49248 3.2294
head 1.53092 -2.32644 2.09316
rclavicle -1.6524e-014 4.37326e-015
rhumerus -82.8677 50.5196 -114.296
rradius 89.2413
rwrist -25.8921
rhand 3.16072 26.4176
rfingers 7.12502
rthumb 28.6141 -1.41186
lclavicle -1.6524e-014 4.37326e-015
lhumerus -86.3612 -54.8936 114.236
lradius 97.5346
lwrist 2.34835
lhand -5.30632 6.04474
lfingers 7.12502
lthumb 20.4991 34.9826
rfemur -5.27646 8.6165 15.6883
rtibia 18.4778
rfoot -15.8186 -15.0958
rtoes -13.0675
lfemur 3.16189 -4.24029 -22.4296
ltibia 5.20271
lfoot -13.2677 15.0351
ltoes -16.1909
